<svg viewBox="0 0 1334 259" xmlns="http://www.w3.org/2000/svg" fill-rule="evenodd" clip-rule="evenodd"
    stroke-linejoin="round" stroke-miterlimit="2">
    <path style="fill: hsl(var(--s))"
        d="M1292.47 170.277l-20.824 40.341 39.716 7.642-40.559 4.211 10.966 36.483-21.739-31.469-18.491 18.11 8.561-24.949-33.643-7.297 34.486-4.555-7.911-29.566 18.685 24.551 30.753-33.502z"
        fill="#f96262" />
    <path style="fill: hsl(var(--p))"
        d="M1263.91 101.826c17.882 0 32.4-14.517 32.4-32.399s-14.518-32.399-32.4-32.399c-17.882 0-32.399 14.517-32.399 32.399 0 1.894.163 3.75.476 5.554h-37.284a69.88 69.88 0 01-.22-5.554c0-38.318 31.109-69.427 69.427-69.427 38.318 0 69.427 31.109 69.427 69.427 0 31.907-21.57 58.816-50.913 66.927v26.472l-37.028 7.451V120.34a18.514 18.514 0 0118.514-18.514z"
        fill="#1a385c" />
    <g fill-rule="nonzero">
        <path style="fill: hsl(var(--p))"
            d="M69.568 106.787c14.902-.03 26.133 11.939 26.377 28.306-.244 16.366-11.475 28.335-26.377 28.335-15.147 0-26.629-10.503-26.629-28.335s11.482-28.336 26.629-28.336v.03zm66.634-32.719H91.309l-1.22 10.734C82.271 74.8 67.613 69.921 56.131 69.921 20.737 69.921.488 97.265 0 135.108c.488 37.834 20.737 65.156 56.131 65.156 11.482 0 26.14-4.879 33.958-14.881v59.559h46.113V74.068zM235.599 74.072v67.139c0 10.01-3.911 19.044-14.176 19.044-9.042 0-14.664-4.395-14.664-15.382V74.072h-46.112v76.905c0 34.159 17.81 49.287 45.381 49.287 14.173 0 24.438-6.102 29.571-14.64l.976 10.489h45.137V74.072h-46.113zM353.246 74.072h-46.113v122.041h46.113V74.072zm-47.09-35.905c0 13.176 10.736 23.911 23.911 23.911 13.176 0 24.155-10.735 24.155-23.911 0-13.175-10.979-24.155-24.155-24.155-13.175 0-23.911 10.98-23.911 24.155zM371.328 196.113h97.169v-40.741h-41.505l40.284-51.781V74.072h-94.484v40.985h34.425l-35.889 51.293v29.763z"
            fill="#1a385c" />
        <path style="fill: hsl(var(--s))"
            d="M479.743 157.075c2.441 32.944 30.256 43.433 56.868 43.189 25.64-.244 54.431-14.147 53.943-41.723-.977-46.164-61.525-31.02-61.525-49.584-.244-2.442.734-7.328 7.338-7.328 6.115 0 10.759 4.397 10.759 10.259h40.01c.976-29.28-23.665-42.211-51.498-41.967-31.741.244-52.721 17.322-52.233 42.451.729 44.709 62.501 32.005 62.501 48.124 0 .976 0 7.563-9.046 7.563-5.379 0-12.957-4.391-13.202-10.978l-43.915-.006zM609.383 258.615l46.116-13.673-.003-59.559c7.817 10.002 22.475 14.881 33.958 14.881 35.393 0 55.643-27.322 56.131-65.171-.488-37.85-20.738-65.172-56.131-65.172-11.483 0-26.141 4.879-33.958 14.881l-1.22-10.734h-44.893v184.547zm66.634-151.858c15.147 0 26.629 10.504 26.629 28.336s-11.482 28.335-26.629 28.335c-14.902 0-26.133-11.969-26.377-28.335.244-16.367 11.475-28.336 26.377-28.336zM892.56 74.068h-44.895l-1.221 10.734c-7.817-10.002-22.475-14.881-33.956-14.881-35.393 0-55.642 27.322-56.13 65.172.488 37.849 20.737 65.171 56.13 65.171 11.481 0 26.139-4.879 33.956-14.881l1.465 10.734h44.651V74.068zm-66.636 89.36c-15.146 0-26.627-10.503-26.627-28.335s11.481-28.336 26.627-28.336c14.901 0 26.138 11.969 26.382 28.336-.244 16.366-11.481 28.335-26.382 28.335zM918.958 74.071v122.042h46.112v-44.434c0-15.625 13.184-33.448 47.12-33.448V72.363c-24.414 0-38.575 13.419-47.12 26.35V74.072l-46.112-.001zM1155.99 74.072h-52.247l-30.03 54.186V12.691l-46.112 12.552v170.87h46.112v-53.698l30.03 53.698h52.247l-40.284-61.021 40.284-61.02z"
            fill="#f96262" />
    </g>
</svg>