<svg viewBox="0 0 235 438" xmlns="http://www.w3.org/2000/svg" fill-rule="evenodd" clip-rule="evenodd"
    stroke-linejoin="round" stroke-miterlimit="2">
    <path fill="none" d="M0 0h234.375v437.5H0z" />
    <clipPath id="prefix__a">
        <path d="M0 0h234.375v437.5H0z" />
    </clipPath>
    <g clip-path="url(#prefix__a)">
        <path
            d="M165.397 287.414l-35.15 68.092 67.036 12.9-68.459 7.107 18.51 61.581-36.694-53.117-31.212 30.568 14.451-42.111-56.787-12.318 58.21-7.689-13.353-49.905 31.537 41.441 51.911-56.549z"
            fill="#f96262" />
        <path
            d="M117.188 171.875c30.182 0 54.687-24.505 54.687-54.688 0-30.182-24.505-54.687-54.687-54.687-30.183 0-54.688 24.505-54.688 54.687 0 3.197.275 6.33.803 9.375H.371A118.163 118.163 0 010 117.187C0 52.51 52.51 0 117.188 0c64.677 0 117.187 52.51 117.187 117.187 0 53.857-36.41 99.278-85.938 112.968v44.683l-62.499 12.576v-84.289a31.246 31.246 0 0131.25-31.25z"
            fill="currentColor" />
    </g>
</svg>