<svg viewBox="0 0 2500 2500" xmlns="http://www.w3.org/2000/svg" fill-rule="evenodd" clip-rule="evenodd"
    stroke-linejoin="round" stroke-miterlimit="2">
    <ellipse cx="1250" cy="2269.01" rx="1099.49" ry="51.052" fill="#f0f1f1" fill-opacity=".8" />
    <path style="fill: hsl(var(--su))"
        d="M871.333 1359.29c20.417-21.334 37.417-45.834 59.834-65.334 3.833-3.333 2.791-7.25 2.333-11.416-4.125-39.334 8.417-58 46.333-68.75 14-3.959 28.25-6.834 42.917-6.917.958.333 1.875.667 2.833.958-1.291 8.167-2.375 16.375-3.958 24.459-5.278 26.666 2.069 49.319 22.042 67.958.75.708 1.583 1.333 2.25 2.125 4.5 5.583 8.208 5.75 13.791.333 18-17.291 38-33.375 23.334-62.625-.209-.416-.084-1.041-.209-1.541-1.5-7.584 1.542-10.167 9.209-9.584 8.75.709 17.541.334 26.333.5 9.292.167 17.208-2.875 23.417-9.958 13.416 5.292 27.125 9.958 38.458 19.5 10.667 8.958 14.042 19.833 10.167 33.25-1.625 5.542-4.084 10.542-7 15.458-1.709 2.917-4.334 5.5-.417 9.292 18.75 18.083 30.917 41.167 46.292 61.875 9.5 17.375 18.125 35.292 29.125 51.875-6.667 21.833-18.709 41.333-26.834 62.542-10.708 28-23.5 55.458-23.958 86.208-.5 33.958 14.708 52.125 48 57.75 7.625 1.292 15.417 1.75 23.125 2.583.208 15.084 1.208 30.167-.583 45.25-18.417 13.542-37.417 26.167-59.917 32-5.5 1.417-7.958 4.167-8 9.542-6.792-1-13.542-2-20.333-3-3.625-9.667-7.5-19.292-10.834-29.042-2.625-7.666-7.208-8.916-14.416-6.25-12.167 4.542-24.875 6.917-37.75 8.542-15.292 1.917-28.042 10.333-40.792 18.208-3.375 2.084-3.75 4.084-2.583 9.459 2.208 10.083 13.833 11.916 14.833 21.5-38.75.083-77.458.166-116.208.333-5.25 0-10.042-.125-14.167-4.417-16.583-17.416-36.75-21.625-59.5-15.208l-.625-26.292c-.292-11.333-3.917-20.458-14.292-26.916-9.541-5.959-19.041-12.334-26.666-20.917 7.083-4.208 14.375-8.167 21.25-12.667 28.375-18.625 37.583-41.875 29.708-74.708-12.208-50.958-37.292-96.417-60.917-142.5-2.625-5.125-5.708-9.833-6-15.75 6.792-9.167 13.584-18.375 20.334-27.542l.041-.166zm293.5 85.375c5.084-9.792 14.25-16.042 21.209-24.209 2-2.375 4.333-5.208 1.958-8.125-3.083-3.75-6.458-1.666-9.25.959-8.167 7.791-16.208 15.666-24.292 23.5-1.041-1.084-2.416-3.292-3.041-3.084-15.625 5.042-31.917 8.834-43.584 21.709-12.875 14.208-26 27.708-43.25 37.291-26.458 14.625-26.625 17.667-14.25 45.834 2.709 6.208 5.584 7.833 11.667 4.375 24.333-13.875 50.333-24.209 75.958-35.334 7.75-3.375 12.209-9 15.084-18 4.083-12.666-.459-28.833 13.875-38 1.625-1.041-.375-4.791-2.042-6.875l-.042-.041z"
        fill="#01c773" fill-rule="nonzero" />
    <path
        d="M652.25 1259.96c-42.208 3-74.833 24.334-102.958 54.084-15.25 16.125-27.417 34.875-43.459 50.291 0-1.75-.083-3.541-.125-5.291 9.167-34.917 21.25-68.75 34.417-102.375 24.667-63 55.25-123.375 80.833-185.959 8.25-20.208 38.75-40 66.167-37.708 22.083 1.875 50.708 18.083 56.333 42.667 6.042 26.375 13.542 52.416 19.334 78.916 4.541 20.75 5.375 41.834 9.708 62.542 4.5 21.5 2.375 44.458.792 66.75-19.792-9.833-39.959-18.833-61.375-24.708-.417-8.25-.5-16.375-2.625-24.584-1.584-6.125-3-13.916 2.916-19.083 17-14.875 23.792-36 34-54.958 8.584-15.959 7.25-23.084-6.125-34.209-3.583-2.958-3.333-6.208-3.208-9.625.167-5.875-1.125-11.25-3.875-16.416-11.792-21.875-29.542-30.625-54.75-30.292-24.542.292-53 20.25-53.792 47.583-.125 4.417-1 7.834-5.166 10.417-9.292 5.792-9.459 14.917-5.75 23.375 6.958 15.958 10.208 34.333 22.458 47.125 15.458 16.125 18.792 34.542 16.417 55.292-.25 2.041-.125 4.166-.167 6.208v-.042zm1241.17-132.916c-7.875-2.292-6.959-9.792-8.084-15.25-5.125-25-24.125-40.834-49.958-41.334-17.917-.333-34.792.792-48.417 15.167-8.291 8.75-13.416 18.583-13.916 30.083-.334 7.375-3.042 11.5-9.125 14.334-3.042-18.167-.042-35.667 5.541-52.917 17.459-36.917 68.667-51.417 103.542-23.292 2.875 2.292 5.75 4.334 9.375 5.084 10.75 21.541 14.833 44.208 11.125 68.125h-.083z"
        fill="#e3c4a8" fill-rule="nonzero" />
    <path style="fill: hsl(var(--s))"
        d="M1591.54 1360.12c8.708 22.958 20.5 44.5 30.75 66.75 7.625 24.667 19.083 48 25.416 73.083 4.667 18.459 10.875 36.792 8.084 56.334-3.667 25.5-17.875 44.666-36.875 60.916-6.709 4.792-13.292 9.792-20.167 14.334-3.667 2.416-6.667 4.875-6.542 9.666.375 14.459-1.666 29.042.959 43.334 4.916 27.083 5.708 54.375 5.083 81.75-.167 7.416-2.208 14.25-4.458 21.083-3.667 11.042-10.542 16.958-23.042 16.25-14.458-.833-28.958-.375-43.458-.458-1.834-15.625 3.125-30.917 2.291-46.542-1.083-19.625-13.791-35.625-31.791-39.167-17.375-3.458-34.959 5.834-43 23.542-2.959 6.542-4.167 13.875-6.209 20.792-.5 1.625.125 3.833-2.083 4.708-.375-1.5-.833-2.958-1.167-4.5-2.708-13-8.166-24.667-18.083-33.708-20.333-18.542-52.167-11.625-61.792 13.666-4.166 10.959-3.291 22.459.084 33.625a4416.72 4416.72 0 007.708 25.209c-16.125 0-32.25.083-48.375 0-14.375-.084-20.958-4.542-25.667-17.709-2.625-7.333-3.708-14.958-4.125-22.875-1.333-26.125 3.459-51.666 7.084-77.291 6.25-.167 12.458-.417 18.708-.417h248.042c17.083 0 17.166-.125 17.166-17.375 0-54.083.042-108.167 0-162.25 0-16.833-.625-17.458-17.625-17.5-57.708-.125-115.458-.167-173.166-.208-.834-14.584-8.375-21.917-23.167-21.959-2.958 0-5.875-1.75-8.917-2.208-20.5-3.125-38.708 7.083-43.833 24.375h-21.708c-17.959.125-18.209.333-18.292 18.25-.208 38.708-.333 77.458-.5 116.167-7.708-.834-15.458-1.292-23.125-2.584-33.292-5.625-48.458-23.75-48-57.75.458-30.75 13.25-58.208 23.958-86.208 8.125-21.208 20.167-40.708 26.834-62.542 11.583-16.083 19.666-33.916 27.166-52.125 7.459-9.916 12.959-20.958 18.709-31.875 5.333-10.041 11.583-18.958 20.416-26.708 26.334-23.167 56.75-36.667 91.042-42.208 3 5.5 8.583 7.208 13.875 9.375 17.208 6.958 32.333-.875 47.792-6.667 23.583 7.667 46.416 16.958 67.208 30.75 15.042 10 26.375 22.542 32.083 40.208 3.292 10.167 7.709 20.167 14.75 28.625l-.041.042z"
        fill="#f66362" fill-rule="nonzero" />
    <path style="fill: hsl(var(--a))"
        d="M1416.46 1254.33l-.625 3.5c-34.291 5.542-64.708 19.042-91.041 42.209-8.834 7.75-15.084 16.666-20.417 26.708-5.75 10.917-11.292 21.958-18.708 31.875l-52.625-.75c14.5-44.792 28.958-89.583 43.5-134.375 5.416-16.708 11.083-33.375 16.625-50.042 24.583 35.375 56.458 61.209 97.958 74.209 8.333 2.625 16.875 4.458 25.333 6.666zm-369.166-208.458c-41.542-9.333-83.75-14.625-125.625-21.917-61.292-10.666-122.667-20.708-184-31.041-2.917-.5-8 .125-8.084-2.667-.166-5.375 5.375-3.167 8.417-3.708 83.292-14.209 166.542-28.459 249.875-42.417 103.75-17.375 207.542-34.542 311.292-51.708 16.791-2.792 17.166-2.959 11.375-19.542-41.667-119-83.459-237.958-125.167-356.958-11.5-32.792-22.833-65.625-34.083-98.5-1.084-3.209-4.709-7.75-1.25-9.667 2.791-1.5 5.5 3.792 7.791 6.458 33.959 39.334 67.875 78.625 101.75 118.042 54.875 63.792 109.625 127.667 164.5 191.5 15.25 17.708 30.625 35.333 45.917 53 9 10.417 9.083 10.458 17.375-.542 39.125-51.791 78.125-103.708 117.375-155.416 108.042-142.292 216.25-284.5 324.333-426.75 19.792-26.042 39.334-52.292 59.084-78.417 1.125-1.5 2.791-2.583 4.208-3.875 1.667 2.25-.333 3.917-1.042 5.667-22.041 52.708-44.041 105.375-66.208 158.041-44.458 105.709-89 211.417-133.5 317.125-39.292 93.25-78.583 186.542-117.917 279.792-6.416 15.208-6.625 15.375 9.875 17.833 91.209 13.625 182.459 27 273.667 40.75 65.583 9.875 131.125 20.167 196.708 30.125 56.875 8.625 113.792 16.959 170.667 25.625 3.542.542 9.708-1.833 10 3.417.167 3.167-6.083 2.125-9.458 2.625-83.542 12.542-167.125 25-250.667 37.458-64.083 9.584-128.125 19.167-192.208 28.75-3.625-.75-6.5-2.791-9.375-5.083-34.834-28.083-86.084-13.583-103.542 23.292-32.542 2.166-64.375 9.541-96.75 12.875-8.625.875-6.208 6.333-4.167 11.333l70.125 172.625c-27.166 12.375-48.833 30.417-62.291 57.75-4.542 9.208-10.667 17.667-16.084 26.458l-49.625-.25c-.791-1.333-1.416-2.75-2.333-3.958-29.542-38.25-59.083-76.5-88.625-114.708 4.042-2.375 8.042-4.709 12.083-7.084 84.334-49.333 114.125-151.666 68.75-238.041-35.25-67.125-105.791-100.334-171.708-93.667-77.958 7.875-138.042 60-156.958 131.5-4.292 16.292-3.792 32.875-6.709 49.125-36.083-6-72.208-11.958-108.333-17.958.458-4.417 3.958-9.625-.542-13-4.375-3.25-8.541 1.5-12.75 2.791-.958.292-1.791 1.042-2.75 1.417-3.666 1.333-7.75 5.875-11.125 2s1.709-7.292 3.625-10.583c6.167-10.584 4.375-16-7.458-18.167-10.167-1.875-20.417-1.083-30.667 1.25-16.625 3.792-32.041 10.958-47.875 16.917l.084.083z"
        fill="#efe54c" fill-rule="nonzero" />
    <path style="fill: hsl(var(--b3))"
        d="M1992.71 1710.38c-16.833-7.083-33.875-9.5-51.208-1.792-5 2.209-10.208 1.542-15.375 1.542-61.875.042-123.75 0-185.625 0-5.167 0-10.333.417-15.375-1.667-17.25-7-34.333-6.25-51.083 1.834-8.75-.084-10.917-5.292-10.875-13.084 0-15.75-.417-31.5-.667-47.208 0-47.75 0-95.5.083-143.292 0-17 .834-17.875 17.375-17.916 102.25-.084 204.542-.084 306.792 0 15.792 0 16.792 1.125 16.833 16.833.209 43.083.292 86.167.417 129.25-.125 20.167-.417 40.333-.333 60.458 0 7.959-.75 14.75-10.959 15v.042zm-597.541-225.167c57.708.084 115.458.125 173.166.209 17 0 17.584.625 17.625 17.5.084 54.083.042 108.166 0 162.25 0 17.25-.083 17.375-17.166 17.375h-248.042c-6.25 0-12.458.291-18.708.416-14-1.027-21.945-7.014-23.834-17.958 1.792-15.042.792-30.167.584-45.25l.5-116.167c.083-17.916.333-18.125 18.291-18.25 7.25-.041 14.459 0 21.709 0 11.583 7.667 10.083 27.917 28.375 29.709 1.166.125.875 8.625 6.916 7.458 5.667-1.083 6.334-5.958 6.334-10.875 0-1.5.083-4.042.75-4.292 1.583-.541 1.5 1.667 2.25 2.625 8.25 10.084 9.416 9.959 14.666-1.416 1.042-2.25.792-6.625 3.209-6.417 13.291.958 9.458-10.958 13.333-16.958l.042.041zm-887.042 59.084c.167-22.834.75-45.709.292-68.5-.209-11.542 4.208-15.334 15.625-15.292 103.833.292 207.708.125 311.541.208 14.375 0 15.709 1.375 15.75 16.417.25 52.958.334 105.917.459 158.875.041 10.333 0 20.667.208 30.958.208 8.292-3.25 12.584-11.875 12.375-3.583-.083-7.167.459-10.792.75-96.041.125-192.083.25-288.166.334-6.125-.375-12.25-1.375-18.334-1-10.875.625-14.458-4.334-14.208-14.667.417-15.875 0-31.75-.083-47.625 8.833-8.375 22.791-5.042 31.541-15.167 10.542-12.166 11.417-11.375-2.875-18.125-1.333-.625-3.583-1.791-3.541-2.583.166-2.875 2.833-1.833 4.5-1.917 4.291-.166 9.208-.375 10.041-5.291 1.042-6.084-4.916-7.167-8.958-9-2.292-1.042-5.042-.959-7.542-1.459-1.5-.291-2.916-.708-4.416-1.083.708-2.583 3.083-1.5 4.666-2.208 7.625-3.542 5.625-8.042.167-11.042-7.333-4.042-15.75-4.75-24.083-4.958h.083zm1324.83 72.5c12.542.125 17.417-4.334 17.834-16.292.416-12-7.292-20.417-18.5-20.292-7.917.125-18.042 10.25-18.5 18.542-.542 9.583 8.333 17.917 19.166 18.042zm-416.208-32.75c.042 10.875 6.792 17.375 17.542 16.916 8.333-.333 16.75-9.458 16.333-17.708-.458-8.083-9.583-16.292-18.083-16.25-9.792.042-15.834 6.542-15.792 17.042zm-717.75-13.542c-.333-11.667-8.417-19.625-19.625-19.25-12.25.417-17.917 6.958-17.667 20.417.25 12.541 5.542 17.375 18.584 17 11.375-.334 19-7.75 18.708-18.167zm676.449-390.097c-5.961-9.02-3.036-16.353 4.343-22.903v-.042c4.791.084 5.291 2.125 2.666 5.709-5.447 3.825-6.993 8.606-3.687 14.63l2.687 2.698c2.584.583 5.209 1.172 7.792 1.755h-.042c2.125.792 2.834 2.375 2.542 4.542-4.954 1.775-9.415.924-13.063-2.983l.021.024h-.041l.019-.023c-.999-1.039-2.088-2.198-3.129-3.281l-.015.013-.064-.096-.036-.037.007-.006zm138.884-13.861l-3.791-2.959c-2.459-3.666-2.542-6.166 2.958-5.833 1.292 1.958 2.583 3.917 3.917 5.833 5.663 17.448-.576 24.825-18.761 22.294l2.927-3.669c8.875-1.458 16.292-4.083 12.75-15.666zm-15.677 19.335l-.031.04v-.042l.031.002z"
        fill="#b8bdbd" fill-rule="nonzero" />
    <path style="fill: hsl(var(--bc))"
        d="M1278.21 1665.04c1.889 10.944 9.834 16.93 23.834 17.958-3.625 25.667-8.417 51.167-7.084 77.292.417 7.875 1.5 15.5 4.125 22.875 4.709 13.166 11.292 17.625 25.667 17.708 16.125.083 32.25 0 48.375 0 3.167 10.833 6.542 21.625 9.458 32.542 9.709 36.875 14.292 74.791 22.5 111.958 5.792 26.083 13.709 51.667 20.667 77.458-52.708.042-105.458.084-158.167.167-5.666 0-11.333.542-16.958.833-2.458-5.458-1.583-11.25-1.625-16.916-.25-33.25-.125-66.5-.625-99.709-.75-51.333-6.083-102.458-6.833-153.791-.292-21.042-11.917-37.167-31.25-46.75.041-5.417 2.541-8.125 8-9.542 22.5-5.833 41.458-18.458 59.916-32v-.083zm-369.708 41.666c-24.125 13.417-30.917 35.125-31.75 61.25-2.125 66.709-5.708 133.375-8.25 200.084-.708 18.541.167 37.125.333 55.708l-91.625-.625c-.083-28.583 1.292-57.292-.625-85.75-3.083-45.417-10.208-90.583-8.791-136.292 11.291.917 22.541.5 33.875 2 20.291 2.75 26.916-2.041 32.291-22 5.709-21.291 3-43.083 1.667-64.625-.75-12.208-4.125-24.291-6.292-36.416 3.584-.25 7.209-.834 10.792-.75 8.625.208 12.083-4.042 11.875-12.375-.25-10.334-.167-20.625-.208-30.959l15.125-3.416c7.583 8.625 17.125 14.958 26.666 20.916 10.375 6.5 14 15.584 14.292 26.917l.625 26.333zm1094.94-348.666c13.491.125 27.024 0 40.516.416 35.5 1.042 59.334 25.167 59.584 60.417.166 26 0 52 0 78 0 10.972 5.75 16.472 17.25 16.5 20.291 0 40.541-.083 60.833 0 36.875.167 60.25 22.958 61.167 59.917.333 13.5.041 27.041.041 40.541 0 112.834.042 225.667 0 338.5 0 36.75-17.083 61.084-48.583 69.125-12.208 3.125-24.75 1.459-37.208.834-18.542.083-37.042.208-55.584.291-37.25.125-74.5.25-111.75.417 4-49.417 11.667-98.458 15-148 2.209-32.917 2.584-66.208 8.709-98.708 4.958-26.292-1.084-47.959-20.709-65.959 10.209-.208 10.959-7.041 10.959-15-.084-20.166.208-40.333.333-60.458 14.417-3.125 27.292-9.667 38.667-18.75 13.625-10.875 25.333-23.5 26.375-42.125 1.375-24.875.291-49.542-5.042-74.083-11.122-51.235-33.945-97.348-60.558-141.875h-.025v-.042l.025.042zm-1313.44 442.916c5.5 51.875 9.625 103.875 12.958 155.917 1.417 22.083 4.834 44.083 5.417 66.292h-49.25c2.792-32.75 5.542-65.5 8.375-98.209 1.083-12.291 2.333-24.708 2.833-36.875 1.25-29.333 5.875-58.333 7.375-87.625 4.084.125 8.167.292 12.25.417l.042.083zm1076.5 221.042c-1.917-64.208-3.792-128.417-5.708-192.625-.125-3.625 0-7.25 0-10.875.083-17.292.083-17.375 16.916-17.375 36.834.042 73.667.167 110.5.375 16.667.083 17.667.25 17.792 17.375.25 25.375-1.75 50.75-1.5 76.083.417 42.542-4.125 84.917-3.917 127.417-44.708.708-89.416 1.417-134.125-.375h.042zm-104.042-372c.25 15.75.709 31.5.667 47.208 0 7.75 2.125 12.959 10.875 13.084-20.25 18.5-25 40.541-20.708 67.708 5.5 34.708 7.208 70.083 9.791 105.208 3.417 46.542 8.667 92.875 15.875 139-50.958 1.292-101.916 1.084-152.875.125-.208-13.5.792-26.833 1.959-40.291 2.041-23.25 1.875-46.709 0-70.042-2.917-36.292-3.459-72.542-.875-108.833 14.5.083 29-.334 43.458.458 12.542.708 19.375-5.167 23.042-16.25 2.291-6.833 4.291-13.667 4.458-21.083.625-27.417-.125-54.667-5.083-81.75-2.584-14.292-.584-28.875-.959-43.334-.125-4.791 2.875-7.25 6.542-9.666 6.875-4.542 13.458-9.542 20.167-14.334 11.708 14.667 24.916 27.334 43.583 32.792h.083zM334.75 2022.331c-40.875 2.375-68.083-24.666-68.292-68.625-.25-56.125-.083-112.291-.083-168.416v-205.875c0-22.792 5.25-43.25 26-56.667 9.417-6.083 19.333-9.583 30.75-9.417 22.875.334 45.792-.625 68.625.375 12.167.542 14.875-3.791 14.5-15.125-.792-26.5.75-53.083-.5-79.541-1.583-33.875 26-60.375 59.375-60.542 13.5-.083 27 .333 40.542.5 0 1.75.083 3.542.125 5.292-6.084 12.625-15.875 22.708-23.75 34.125-23 33.291-46.25 66.458-57.834 105.916-5.666 19.334-4.5 37.709 8.542 54.459 15.375 19.75 34.833 33.583 58.083 42.375 4.125 7.291 6.334 16.75 17.792 15.833.083 15.875.5 31.75.083 47.625-.291 10.333 3.334 15.333 14.209 14.667 6.083-.375 12.208.625 18.333 1-2.292 13.708-5.625 27.333-6.583 41.125-1.334 18.958-3.375 38.125 1.625 57.041 4.791 18.125 9.708 22.209 27.75 22.334 11.875.083 23.791.208 35.666.291-.25 21.292 1.292 42.792-1.083 63.875-4.542 40.667-9.125 81.25-8.542 122.209.167 11.958 0 23.916 0 35.875-6.75-.084-13.5-.167-20.208-.209-59.625-.208-119.25-.375-178.917-.541-18.75 0-37.458-.042-56.208-.084v.125zm624.167.625c-.5-30.125 4.25-59.875 7-89.75 3.666-39.666 9.708-79.125 13.958-118.75 1.042-9.583 3.625-13.75 13.958-13.583 44.625.833 89.292-.833 133.875 2.292 6.834.458 10.542 2.583 11.334 9.708 4.208 37.042 8.708 74 12.875 111.042 3 26.75 5.75 53.5 8.375 80.291.583 6.167.166 12.417.208 18.667-67.195 0-134.39.042-201.583.083h-.042.042zm632.625-662.833c6.333-1.042 13.083 1.667 19.125-2.167l49.625.25c-12.667 22.875-25.334 45.792-38 68.667-10.25-22.25-22.042-43.792-30.75-66.75zm-305.875-1.5c-7.5 18.208-15.584 36.083-27.167 52.125-11-16.583-19.625-34.458-29.125-51.875l3.667-1 52.625.75zM851 1386.873c-10.417-6.625-12.542-18.542-18.083-28.292 12.791.125 25.625-1.083 38.416.709A11843.28 11843.28 0 00851 1386.831v.042z"
        fill="#848e8e" fill-rule="nonzero" />
    <path
        d="M1898.08 2151.08c17.917-1.125 35.375 1.917 52.792 5.334.042 3.125.125 6.291.167 9.416-.084 1.042-.125 2.042-.209 3.084-.166 10.958-3.583 15.125-14.708 8.583-8.833-5.208-19.25-3.75-28.875-2.542-10.375 1.292-13.167-1.583-10-11.541 1.208-3.792.583-8.209.792-12.334h.041zm-181.375 5.417c17.459-3.583 34.959-6.417 52.834-6.333.208 1.083.375 2.166.583 3.25.75 1.25 1.458 2.541 2.208 3.791 0 3.084 0 6.209.084 9.292.25 7.917-4 10.292-10.792 7.958-11.125-3.791-21.708-1.458-31.417 3.542-8.208 4.208-10.5 1.625-12.208-6.125-1.125-5.167-1.208-10.208-1.292-15.375zm-1057.58-133.25c-2.875 39.708-6.083 79.417-8.417 119.167-.541 9.083 1.5 18.166-1.083 27.416-1.625 5.875-2.125 10.042-9.75 6.834-8.417-3.542-17.625-3.167-26.042-1.125-9.083 2.208-11.041-1.125-11.041-8.917.083-28.5-1.042-56.917-6.542-84.958-3.792-19.334-.958-39.334-6.208-58.5 0-11.959.166-23.917 0-35.875-.584-41 4-81.584 8.541-122.209 2.334-21.083.834-42.583 1.084-63.875 1.625-13.458-.209-26.958-.084-40.416.25-24.209 14.25-41 35.959-43.292 20.208-2.167 36.75 12.167 42.541 35.083 4.125 16.25-.958 32-.416 47.959-1.5 29.25-6.125 58.25-7.375 87.625-.542 12.166-1.792 24.583-2.834 36.875-2.833 32.75-5.583 65.458-8.375 98.208h.042zm108.667-222.208c-1.459 45.75 5.708 90.875 8.791 136.291 1.917 28.459.542 57.167.625 85.75-.75 1.917-2.25 3.875-2.166 5.75 1.25 32.292-6.292 63.834-7.584 95.917-.583 14.458-3.083 28.833-2.5 43.417.25 6.958-.875 10.541-9.708 7.791s-18.583-2.75-27.625.5c-6.833 2.459-9.583.834-9.542-6.541.209-40.292-7.041-80.167-6.833-120.5.042-8.75-1.833-17.5-2.833-26.25-.584-22.209-3.959-44.209-5.417-66.292-3.375-52.083-7.458-104.042-12.958-155.917-.292-13.458-.834-26.958-.834-40.416 0-10.709 3.667-20.375 10.334-28.75 9.666-12.167 25.625-17.167 40.5-12.834 15.833 4.584 27.25 18.334 27.916 35.417.625 15.542 0 31.125-.125 46.667h-.041zm-259.667-256.75c8.333.208 16.75.916 24.083 4.958 5.459 3 7.5 7.5-.166 11.042-1.584.708-3.959-.334-4.667 2.208 1.458.375 2.917.792 4.417 1.083 2.541.5 5.291.417 7.541 1.459 4.042 1.833 10 2.875 8.959 9-.834 4.958-5.75 5.125-10.042 5.291-1.667.042-4.333-.958-4.5 1.917-.042.792 2.167 1.958 3.542 2.583 14.291 6.709 13.416 5.959 2.875 18.125-8.75 10.084-22.709 6.792-31.542 15.167-11.458.917-13.667-8.542-17.792-15.833-1.833-21.292 1-41.167 17.292-56.917v-.083zm1352.75-285.209c-20.5 14.667-41 12.5-61.458-.125 2-21.125 6.708-42.25-14.125-58.75-7.125-5.625-10.792-16.25-12.709-26.041-.75-3.709-1.958-6.792-4.5-9.584-9.541-10.458-9.875-22.166-4.166-34.541 6.083-2.834 8.791-6.959 9.125-14.334.541-11.5 5.666-21.333 13.916-30.083 13.625-14.375 30.5-15.5 48.417-15.167 25.833.5 44.833 16.334 49.958 41.334 1.125 5.458.25 12.958 8.084 15.25 8.708 12.458 9.333 25.125-.834 36.791-6.375 7.292-6.541 16.959-11.666 24.709-5.417 8.166-10.084 16.916-17.5 23.458-5.709 5.042-7.709 11.125-6 18 2.375 9.625 2.125 19.417 3.458 29.083zm-1208.62.793c.037-2.056-.081-4.111.166-6.126 2.375-20.75-.959-39.125-16.417-55.292-12.25-12.791-15.5-31.125-22.458-47.125-3.667-8.458-3.542-17.583 5.75-23.375 4.166-2.583 5.041-5.958 5.166-10.416.792-27.375 29.209-47.292 53.792-47.584 25.208-.291 42.958 8.459 54.75 30.292 2.792 5.167 4.083 10.5 3.875 16.417-.083 3.416-.333 6.666 3.208 9.625 13.375 11.125 14.709 18.291 6.125 34.208-10.208 19-17 40.083-34 54.958-5.916 5.167-4.5 13-2.916 19.084 2.125 8.208 2.25 16.333 2.625 24.583-19.792 9.333-39.625 14.458-59.666.751zm0 0l-.001.082v-.083l.001.001z"
        fill="#e49b96" fill-rule="nonzero" />
    <path d="M1772.33 2157.21c-.75-1.25-1.458-2.541-2.208-3.791.75 1.25 1.458 2.541 2.208 3.791z" fill="#f0f1f1"
        fill-rule="nonzero" />
    <path
        d="M1171.54 2153.96c19.75.25 39.541-1.333 59.25 1.084-.209 7.75-.584 15.458-.625 23.208 0 5.5-2.125 7.667-7.5 5.625-12.709-4.833-25.334-4.167-37.667 1.083-6.417 2.75-6.292-1.083-7.208-5.625-1.709-8.541 3.625-18.875-6.25-25.375zm-287.375.334l63.583-.25c-9.583 5.208-5.792 14.416-6.167 22.041-.333 7.667-.958 12-10.333 7.875-11.333-5-23.25-4.708-34.625.167-7.208 3.083-8.667.75-8.875-6.333-.249-7.86 3.485-16.59-3.541-23.5h-.042zm355.5.041c.208-.375.448-.593.724-.656.276-.062.588.031.942.281-.25 1.584-.75 1.834-1.666.375zm-355.458-.041h-.042v-.042l.042.042zm305.749-450.667c-18.625 5.083-32.375 17.75-46.75 29.542-12.416 10.166-18.625 10.541-31.583.708-4.208-3.208-8.792-5.25-13.208-7.833-1-9.584-12.625-11.417-14.834-21.5-1.166-5.375-.791-7.375 2.584-9.459 12.791-7.875 25.5-16.25 40.791-18.208 12.917-1.625 25.584-4 37.75-8.542 7.209-2.666 11.792-1.416 14.417 6.25 3.375 9.75 7.208 19.375 10.833 29.042zm-25.125-258.917c1.667 2.084 3.667 5.834 2.042 6.875-14.333 9.125-9.792 25.292-13.875 38-2.917 9-7.375 14.625-15.083 18-25.625 11.125-51.625 21.459-75.959 35.334-6.083 3.458-8.958 1.833-11.666-4.375-12.334-28.167-12.209-31.167 14.25-45.834 17.25-9.541 30.375-23.083 43.25-37.291 11.708-12.875 28-16.667 43.583-21.709.625-.208 2 2 3.042 3.084-6.125 15.25 7.791 4.125 10.375 7.875l.041.041zm230.334 40.5c-3.917 6 0 17.917-13.334 16.959-2.416-.167-2.166 4.166-3.208 6.416-5.25 11.375-6.417 11.5-14.667 1.417-.75-.917-.708-3.125-2.25-2.625-.666.208-.75 2.792-.75 4.292 0 4.916-.666 9.791-6.333 10.875-6.042 1.166-5.75-7.334-6.917-7.459-18.333-1.791-16.791-22.041-28.375-29.708 5.084-17.292 23.334-27.5 43.834-24.375 3 .458 5.958 2.208 8.916 2.208 14.792 0 22.292 7.375 23.167 21.959l-.083.041zm-262.917-392.875c12.417 22.667 11.542 50.042 25.292 72.292.916 1.5 1.083 5.208.25 5.708-15.334 9.459-7.625 26.25-12.709 38.917-1.333 3.333-2.166 6.833-3.25 10.25-6.208 7.083-14.125 10.125-23.416 9.958-8.792-.166-17.625.209-26.334-.5-7.625-.625-10.708 2-9.208 9.584.083.5 0 1.083.208 1.541 14.667 29.292-5.333 45.375-23.333 62.625-5.583 5.375-9.292 5.25-13.792-.333-.625-.792-1.5-1.458-2.25-2.125-20-18.667-27.347-41.319-22.041-67.958 1.583-8.084 2.666-16.292 3.958-24.459 11-5.25 15.375-16.166 21.583-25.416 3.375-5.042 1-9.75-2.208-14.25-3.958-5.542-6.833-11.625-6-18.75.917-7.959 5.5-13.5 12.542-16.334 7.041-2.833 11.416 2.125 15.666 7 4.125 4.75 5.417 15.167 13 12.75 5.834-1.833 5.584-11.291 6.042-17.916 1.25-17.834 10.292-29.875 27.042-36.042 6.291-2.292 12.625-4.333 18.958-6.5v-.042zm345.25 168.209c-15.417 5.791-30.583 13.625-47.792 6.666-5.291-2.125-10.833-3.833-13.875-9.375l.625-3.5c1.834-8.125.584-16.583 3.25-24.666 1.334-4.084.875-8.625-2.708-11.5-10.708-8.667-16.375-21.292-25.25-31.375.333-2.167-.417-3.75-2.542-4.542.5-7.333 1.084-14.667-6.75-19.083 2.625-3.542 2.125-5.625-2.666-5.709.25-10.958-3.292-22.666 8.833-30.708 2.5-1.667 2.125-7.667 3.083-11.708 6.542-27.292 28.125-44.167 55.834-43.667 27.541.5 49.791 18.375 55.208 45.25 1.375 6.708 2.292 12.042 8.667 16.667 8.916 6.458 3.333 16.041 2.125 24.458-5.5-.333-5.417 2.125-2.959 5.833-7.333 4.125-7.791 11.542-8.958 18.625-1 1.25-2 2.459-2.958 3.709-3.084 5.291-5.084 11.833-9.459 15.625-16.708 14.375-15.583 32.5-12.583 51.333.292 2.542.625 5.125.917 7.667h-.042z"
        fill="#ae6a69" fill-rule="nonzero" />
    <path style="fill: hsl(var(--b2))"
        d="M939.806 2184.39c1.564 13.353 12.289 42.032 13.652 48.154 2.375 10.541 7.667 20.291 7.875 31.5.167 7.416-2.375 11.791-9.375 13.875-23.708 7.041-47.458 9.291-71.666 2.166-7.042-2.083-9.584-5.541-9.875-13.083-.542-13.333 7-24.708 7.375-37.958.154-5.406 10.108-31.464 11.826-44.179-1.374-1.029-1.804-3.404-1.91-6.988l1.265.33c1.022.865 1.135 3.295.645 6.658 1.273 1.057 3.426.859 6.965-.655 11.375-4.875 23.292-5.166 34.625-.166l8.598.346zm240.351-2.984l.331 4.12c.878.606 2.31.447 4.512-.482 12.333-5.25 24.958-5.917 37.667-1.084l3.002.655c.402 12.785 16.242 41.535 20.623 52.47.958 2.417 1.708 4.875 2.5 7.334 8.416 26.208 3.208 32.833-23.292 37.5-16.792 2.958-32.708 2.083-49.083-.5-13.917-2.209-16.375-4.959-15.459-19.25.667-9.875 3.792-19.292 7.042-28.5 2.224-6.253 12.425-35.316 12.488-48.143-1.942-.484-2.094-3.152-2.696-6.107l2.365 1.987zm538.601-6.211c1.704 5.217 4.41 6.499 11.367 2.932 9.708-4.958 20.25-7.333 31.417-3.542 4.922 1.692 8.51.887 9.917-2.724 2.869 15.037 23.639 57.188 26.083 63.433 9.375 23.958 9.125 24.25-14.084 34.25-18.416 7.958-37.958 10-57.75 8.583-10.666-.75-17.541-10.583-14.541-22.708 2.195-8.818 9.409-65.212 7.591-80.224-.307-.939-.581-2.005-.841-3.193.382.581.657 1.675.841 3.193zm188.367-.151c9.625-1.167 20.042-2.667 28.875 2.541 7.225 4.265 11.21 3.979 13.102.2-.128-5.389 1.091-1.977 0 0 .285 15.653 5.138 47.24 6.44 52.634 2.5 10.458 3.083 21.375 4.125 32.125.583 6.166-1 10.958-8.417 12.583-22.25 4.917-44.167 3.042-65.625-3.417-16.917-5.083-19.5-10.916-14.875-27.583 2.913-10.55 24.174-49.68 28.054-69.494l8.321.411zm-1262.15 2.608c1.189 15.701 16.534 50.176 20.606 60.808 6.459 16.917-1.291 21.542-14.708 23.334-17.875 2.416-36.292.75-54.5.708-6.292 0-9.5-3.583-9.542-9.833 0-4.667-.333-9.417.292-14 1.31-9.948 16.529-46.22 18.786-63.198-2.441-1.217-3.119-4.259-3.119-8.844l1.93.409c1.515 1.09 1.77 4.147 1.189 8.435 1.653.952 4.185.981 7.922.073 8.417-2.042 17.625-2.417 26.042 1.125l5.102.983zm878.096-19.335c2.499 22.541 20.158 84.741 12.01 88.435-1.708 4.042-24.791 16-29.708 16-15.083-.083-30.167.458-45.208-.125-20.709-.792-24.459-6.5-18.417-26.417 3.249-10.721 20.86-45.328 21.672-60.061l1.37-.105c7.791-2.584 16.458-1.334 23.583-7.042 7.875-6.333 17.333-9.833 27.583-8.792l7.115-1.893zm-795.49 18.227c9.042-3.25 18.75-3.25 27.625-.5 3.905 1.215 6.303 1.193 7.696.124 0 0 16.88 53.235 18.013 59.667 3.708 20.917-1.125 26.542-22.709 26.792-13.5.167-27.041.333-40.541-.083-13.709-.417-17.459-5.459-14.959-18.834 2.373-12.886 21.144-49.94 20.454-66.101l4.421-1.065zm989.209-20.042c-18.525-5.052-34.792-118.625-37.75-134.25-12.638-80.87-18.529-162.669-25.667-244.208-2.452-28.005-1.628-47.303 20.708-67.709 22.673-10.997 42.714-.655 66.459-.166 61.862 1.273 123.76 1.11 185.625 0 24.855-.446 41.748-10.139 66.583.25 22.48 20.575 22.979 37.6 20.708 65.958-6.593 82.351-16.974 164.368-23.708 246.708-5.042 2.459-5.083 7-4.792 11.625l-.208.167c-.582.616-11.85 74.73-12.292 77.833l-.208.209c-5.75 5.416-1.875 12.416-2.958 18.583l-.084.083c-12.238 11.519-2.068 21.928-18.333 24.875-17.458-3.416-34.917-6.458-52.792-5.333-15.89-12.948-.344-63.631-.625-69.5l.084-.083c7.728-9.404 3.071-55.713 3.083-59.167-.208-42.492 2.786-84.939 3.917-127.417.675-25.357 1.836-50.719 1.5-76.083-.068-5.101.941-11.498-2.709-15.062-3.639-3.554-9.998-2.204-15.083-2.313-36.825-.788-73.67-.913-110.5-.375-4.967.073-12.187-2.059-14.74 2.203-4.476 7.475-2.317 17.336-2.177 26.047 1.038 64.228 3.792 128.417 5.709 192.625 0 14.486 16.026 108.088 3.083 128.167-17.875-.084-35.417 2.75-52.833 6.333zm116.166-539.708c-10.833-.125-19.708-8.459-19.166-18.042.458-8.292 10.583-18.417 18.5-18.542 11.208-.166 18.916 8.292 18.5 20.292-.417 11.958-5.292 16.458-17.834 16.292zm-416.166-32.792c-.042-10.5 5.958-17 15.791-17.042 8.5 0 17.667 8.167 18.084 16.25.458 8.25-7.959 17.375-16.334 17.709-10.791.416-17.5-6.084-17.541-16.917zm-717.792-13.5c.292 10.375-7.333 17.833-18.708 18.167-13.042.375-18.334-4.459-18.584-17-.25-13.459 5.417-20 17.667-20.417 11.167-.375 19.25 7.583 19.625 19.25z"
        fill="#fff" />
    <path style="fill: hsl(var(--p))"
        d="M2101.5 2022.67c18.542-.084 37.042-.209 55.583-.292-.916 70.708-1.166 141.375.125 212.083-2.041 4.584 2.5 12.167-8.083 12.834-10.792.666-10.708-6.25-12.375-12.875-.375-3.584-.542-7.209-1.125-10.75-11.333-67-22.75-134-34.125-201zM354.33 2237.211c-2.166 3.417 0 10.125-7.333 9.709-4.792-.292-10.792 1.75-11.375-6.25 0-69.667.083-139.375.042-209.042 0-3.083-.625-6.167-.959-9.292 18.75 0 37.459.042 56.209.084-12.209 71.583-24.375 143.208-36.584 214.791zm1172.92-434.041c-2.625 36.291-2.042 72.541.875 108.833 1.875 23.333 2.042 46.792 0 70.042-1.167 13.458-2.167 26.833-1.958 40.291-5.292 38.625-18.542 76.917-5.542 116.459 1.292 3.916 1.5 8.166 2.5 12.208 1.542 6.208.917 9.875-7.125 9.042-10.25-1.042-19.708 2.5-27.583 8.791-7.084 5.709-15.792 4.459-23.584 7.042-5.75 1.917-5.166-3.25-5.25-6.625-.333-12.458-1.333-25-.541-37.417 1.125-18.166-3.084-34.666-10.459-51.166-8.5-18.875-15.291-38.584-22.791-57.917-6.959-25.792-14.917-51.375-20.667-77.458-8.208-37.167-12.792-75.084-22.5-111.959-2.875-10.916-6.292-21.708-9.458-32.541-2.584-8.417-5.167-16.792-7.709-25.209-3.375-11.208-4.25-22.666-.083-33.625 9.625-25.291 41.458-32.208 61.792-13.666 9.916 9.041 15.375 20.708 18.083 33.708.333 1.5.75 3 1.167 4.5 2.208-.875 1.625-3.042 2.083-4.708 2.083-6.959 3.25-14.292 6.208-20.792 8.042-17.708 25.625-27 43-23.542 18.042 3.584 30.75 19.584 31.792 39.167.833 15.625-4.125 30.917-2.292 46.542h.042zm-643.083 351.125c-9.542 1.333-9.167-5.292-9.75-11.667-3.209-36-4.167-72.042-4.75-108.125-.042-3.583-.542-7.167-.834-10.75-.166-18.583-1-37.167-.333-55.708 2.542-66.709 6.125-133.375 8.25-200.084.833-26.125 7.625-47.833 31.75-61.25 22.792-6.375 42.917-2.208 59.5 15.209 4.125 4.291 8.917 4.458 14.167 4.416 38.75-.125 77.458-.208 116.208-.333 4.417 2.583 9 4.625 13.208 7.833 12.959 9.792 19.167 9.459 31.584-.708 14.416-11.75 28.166-24.458 46.75-29.542 6.791 1 13.541 2 20.333 3 19.375 9.625 30.958 25.75 31.25 46.75.708 51.375 6.083 102.5 6.833 153.792.5 33.25.375 66.5.625 99.708 0 5.667-.833 11.459 1.625 16.917-1.541 33.958-3.25 121.458-9.291 130.167-.667-.5-1.25-.375-1.667.375-2.958.208-5.917.458-8.875.666-19.708-2.416-39.5-.833-59.25-1.083-6.25-21.125-6-109.125-11.042-131.083-.041-6.209.375-12.5-.208-18.667-2.625-26.792-5.375-53.542-8.375-80.292-4.167-37.041-8.667-74.041-12.875-111.041-.792-7.125-4.542-9.25-11.333-9.709-44.584-3.125-89.25-1.458-133.875-2.291-10.334-.209-12.917 3.958-13.959 13.583-4.25 39.625-10.291 79.083-13.958 118.75-2.75 29.875-7.5 59.625-7 89.75-6.333 38.958-5.583 78.417-8.792 117.625-.375 4.542.667 9.375-2.375 13.458l-63.583.25.042.084zm-206.459-353.75c-.541-15.959 4.542-31.709.417-47.959-5.792-22.916-22.375-37.25-42.542-35.083-21.708 2.333-35.708 19.125-35.958 43.292-.125 13.458 1.708 26.916.083 40.416-11.875-.083-23.791-.208-35.666-.291-18.042-.125-22.959-4.25-27.75-22.334-5-18.916-2.959-38.083-1.625-57.041.958-13.792 4.291-27.417 6.583-41.125 96.042-.125 192.083-.25 288.167-.334 2.166 12.125 5.541 24.209 6.291 36.417 1.334 21.542 4.084 43.333-1.666 64.625-5.375 19.958-12 24.75-32.292 22-11.333-1.542-22.625-1.125-33.875-2 .083-15.542.75-31.125.125-46.667-.667-17.083-12.125-30.833-27.917-35.416-14.875-4.334-30.833.666-40.5 12.833-6.666 8.375-10.333 18.042-10.333 28.75 0 13.458.542 26.958.833 40.417-4.083-.125-8.166-.292-12.25-.417l-.125-.083zm1325.71-442.5c26.666 44.541 49.458 90.666 60.583 141.916 5.333 24.542 6.417 49.209 5.042 74.084-1.042 18.666-12.709 31.25-26.375 42.125-11.417 9.083-24.25 15.625-38.667 18.75-.125-43.084-.208-86.167-.417-129.25-.083-15.709-1.041-16.834-16.833-16.834-102.25-.083-204.542-.083-306.792 0-16.541 0-17.333.917-17.375 17.917-.083 47.75-.083 95.5-.083 143.292-18.667-5.459-31.875-18.125-43.583-32.792 19-16.25 33.208-35.417 36.875-60.917 2.791-19.541-3.417-37.875-8.084-56.333-6.333-25.083-17.833-48.417-25.416-73.083 12.666-22.875 25.333-45.792 38-68.667 5.416-8.792 11.541-17.25 16.083-26.458 13.417-27.334 35.125-45.417 62.292-57.75 19.75-7.084 39.791-12.959 60.791-15.042 20.459 12.625 40.959 14.792 61.459.125 23.333 6.5 46.625 12.875 69.041 22.333 18.625 7.834 33.917 19.167 45.209 36.042 9.166 13.708 18.833 27.083 28.291 40.583l-.041-.041zm-1152.42 28.833c.292 5.917 3.375 10.667 6 15.75 23.625 46.083 48.708 91.542 60.917 142.5 7.875 32.833-1.334 56.083-29.709 74.708-6.875 4.542-14.166 8.459-21.25 12.667l-15.125 3.417c-.125-52.959-.208-105.917-.458-158.875-.083-15.042-1.417-16.375-15.75-16.417-103.833-.083-207.708.083-311.542-.208-11.375 0-15.833 3.75-15.625 15.291.417 22.834-.125 45.667-.291 68.5-16.292 15.792-19.125 35.667-17.292 56.917-23.25-8.833-42.708-22.625-58.083-42.375-13.042-16.75-14.209-35.167-8.542-54.458 11.583-39.459 34.833-72.625 57.833-105.917 7.875-11.417 17.667-21.5 23.75-34.125 16.042-15.417 28.25-34.167 43.459-50.292 28.125-29.75 60.75-51.083 102.958-54.083 20.083 13.708 39.875 8.583 59.667-.75 21.416 5.875 41.541 14.875 61.375 24.708 24.791 13.417 38.75 36.042 50.875 60.209 2.541 5.041 5.833 9.666 8.791 14.5 5.542 9.75 7.667 21.666 18.084 28.291l-.042.042zm313.833 57.833c-2.583-3.75-16.5 7.375-10.375-7.875 8.084-7.833 16.125-15.708 24.292-23.5 2.75-2.625 6.167-4.708 9.25-.958 2.375 2.917.083 5.75-1.958 8.125-6.917 8.167-16.125 14.417-21.209 24.208zm100.292-363.541c2.917-16.292 2.417-32.834 6.708-49.125 18.917-71.542 79-123.625 156.959-131.5 65.916-6.667 136.458 26.541 171.708 93.666 45.375 86.375 15.542 188.709-68.75 238.042-4.042 2.375-8.042 4.708-12.083 7.083-14.334 4.584-28.25 10.542-43.084 13.542-3-18.833-4.125-36.958 12.584-51.333 4.375-3.792 6.375-10.334 9.458-15.625 18.25 2.541 24.458-4.834 18.792-22.292-1.292-1.958-2.584-3.917-3.917-5.833 1.208-8.375 6.792-18-2.125-24.459-6.375-4.583-7.292-9.958-8.667-16.666-5.458-26.875-27.666-44.75-55.208-45.25-27.667-.5-49.292 16.375-55.833 43.666-.959 4-.584 10.042-3.084 11.709-12.083 8-8.583 19.75-8.833 30.708-7.417 6.583-10.333 14-4.25 23.042 1.042 1.083 2.083 2.166 3.167 3.291 3.666 4.042 8.041 4.792 13.041 2.959 8.875 10.083 14.542 22.708 25.25 31.375 3.584 2.916 4.042 7.416 2.709 11.5-2.667 8.041-1.417 16.541-3.25 24.666-8.459-2.208-17-4.041-25.334-6.666-41.5-13-73.375-38.834-97.958-74.209-17-28.458-25.5-59.458-28.042-92.291h.042zm-239.5 126.666c-.958-.291-1.917-.583-2.833-.958-11.75-21.958-23.709-43.75-27.542-68.958-3.458-22.709.125-42.167 16.417-60.459 10.875-12.208 22.5-22.458 35.625-31.541 15.833-5.959 31.208-13.125 47.875-16.917 10.25-2.333 20.5-3.083 30.666-1.25 11.834 2.167 13.625 7.583 7.459 18.167-1.917 3.291-7 6.708-3.625 10.583s7.458-.667 11.125-2c.958-.333 1.791-1.125 2.75-1.417 4.25-1.291 8.416-6.041 12.75-2.791 4.5 3.375 1 8.583.541 13-8.166 9.708-16.375 19.416-24.541 29.125-6.334 2.166-12.709 4.208-18.959 6.5-16.791 6.125-25.791 18.166-27.041 36.041-.459 6.667-.209 16.084-6.042 17.917-7.583 2.375-8.875-8.042-13-12.75-4.25-4.875-8.625-9.792-15.667-7-7.083 2.833-11.625 8.375-12.541 16.333-.834 7.125 2.041 13.209 6 18.75 3.208 4.5 5.583 9.209 2.208 14.25-6.208 9.292-10.583 20.209-21.583 25.417l-.042-.042zm355.833-27.333l-2.666-2.667c-3.334-6.041-1.792-10.833 3.666-14.666 7.792 4.375 7.25 11.75 6.75 19.083l-7.75-1.75zm129.084-16.917c1.25 1 2.541 2 3.791 2.959 3.5 11.541-3.916 14.166-12.75 15.666 1.167-7.083 1.625-14.5 8.959-18.625z"
        fill="#1b395c" fill-rule="nonzero" />
</svg>